<svg width="32" height="32" viewBox="0 0 32 32" fill="none" xmlns="http://www.w3.org/2000/svg">
<path d="M26 16C26.0052 18.0946 25.1838 20.1066 23.714 21.599C23.5274 21.7839 23.2755 21.888 23.0128 21.8888C22.75 21.8895 22.4975 21.7868 22.3099 21.6028C22.1223 21.4189 22.0146 21.1685 22.0101 20.9058C22.0057 20.6431 22.1048 20.3892 22.286 20.199C23.3847 19.0777 24.0001 17.5703 24.0001 16.0005C24.0001 14.4306 23.3847 12.9233 22.286 11.802C22.1048 11.6117 22.0057 11.3578 22.0101 11.0951C22.0146 10.8324 22.1223 10.582 22.3099 10.3981C22.4975 10.2142 22.75 10.1115 23.0128 10.1122C23.2755 10.1129 23.5274 10.217 23.714 10.402C25.1835 11.8941 26.005 13.9057 26 16ZM25.684 6.26997C25.4904 6.08856 25.2327 5.9915 24.9675 6.00012C24.7023 6.00875 24.4514 6.12236 24.27 6.31597C24.0886 6.50958 23.9915 6.76732 24.0002 7.0325C24.0088 7.29768 24.1224 7.54856 24.316 7.72997C25.4754 8.7733 26.4026 10.0488 27.0372 11.4736C27.6718 12.8984 27.9998 14.4407 27.9998 16.0005C27.9998 17.5602 27.6718 19.1026 27.0372 20.5274C26.4026 21.9522 25.4754 23.2276 24.316 24.271C24.1225 24.4524 24.009 24.7032 24.0005 24.9683C23.992 25.2334 24.0891 25.491 24.2705 25.6845C24.4519 25.8779 24.7027 25.9914 24.9678 26C25.2329 26.0085 25.4905 25.9114 25.684 25.73C27.0431 24.4996 28.1294 22.9982 28.8728 21.3224C29.6162 19.6467 30.0003 17.8337 30.0003 16.0005C30.0003 14.1672 29.6162 12.3543 28.8728 10.6785C28.1294 9.00274 27.0431 7.50031 25.684 6.26997ZM20 5.91997V26.08C19.9955 26.444 19.8923 26.7999 19.7015 27.1099C19.5107 27.4199 19.2395 27.6724 18.9166 27.8405C18.5937 28.0086 18.2312 28.0859 17.8679 28.0643C17.5045 28.0428 17.1537 27.9231 16.853 27.718L8.686 22H5C4.20435 22 3.44129 21.6839 2.87868 21.1213C2.31607 20.5587 2 19.7956 2 19V13C2 12.2043 2.31607 11.4413 2.87868 10.8787C3.44129 10.316 4.20435 9.99997 5 9.99997H8.685L16.853 4.28197C17.1538 4.07683 17.5046 3.95712 17.8681 3.93559C18.2316 3.91406 18.5941 3.99151 18.917 4.1597C19.2399 4.32788 19.5112 4.58051 19.7019 4.89066C19.8926 5.20082 19.9956 5.5559 20 5.91997ZM8 12H5C4.73478 12 4.48043 12.1053 4.29289 12.2929C4.10536 12.4804 4 12.7348 4 13V19C4 19.2652 4.10536 19.5195 4.29289 19.7071C4.48043 19.8946 4.73478 20 5 20H8V12ZM18.006 26.082L18 5.92097L10 11.521V20.48L18 26.08L18.006 26.082Z" fill="white"/>
</svg>
